#!OML:ASF X:\für Bonn\!DataBase\2005_08_10_Bjorn_Final\c3d\bjorn.ASF
:FULLY-SPECIFIED
:DEGREES
146
root 0.59217 20.4093 1.64034 -169.667 -7.33828 -184.158
lowerback 4.0799 0.457547 5.9341
upperback 7.59234 -0.118014 1.24199
thorax 5.65433 -0.0587007 -2.05136
lowerneck -9.03965 -1.32163 0.971073
upperneck 5.69089 -1.63372 -3.96666
head 3.41353 -0.979354 -1.57842
rclavicle 3.97569e-015 1.74931e-014
rhumerus 66.1119 0.410761 -75.8802
rradius 10.2667
rwrist 51.5645
rhand -14.6313 9.47571
rfingers 7.12502
rthumb 11.5203 -20.1877
lclavicle 3.97569e-015 1.74931e-014
lhumerus 64.8432 -10.9511 86.0501
lradius 9.69941
lwrist -56.4778
lhand -24.6082 -7.66488
lfingers 7.12502
lthumb 1.88992 22.3065
rfemur 154.487 -172.367 -168.183
rtibia 40.8959
rfoot 0.328446 1.91298
rtoes -34.4823
lfemur -27.4357 3.70108 -21.3241
ltibia 40.6139
lfoot 9.58681 -6.82831
ltoes -17.3269
147
root 0.601056 20.5588 1.57468 -169.809 -7.29395 -184.117
lowerback 3.64173 0.484639 5.84108
upperback 7.39677 -0.0561623 1.17449
thorax 5.69462 -0.0141884 -2.06828
lowerneck -8.54568 -1.41582 0.822498
upperneck 5.97502 -1.74774 -3.80125
head 3.414 -1.03029 -1.49918
rclavicle 1.27222e-014 1.43125e-014
rhumerus 66.2368 0.466007 -75.9281
rradius 9.71287
rwrist 51.7013
rhand -15.0598 9.37955
rfingers 7.12502
rthumb 11.1071 -20.3065
lclavicle 1.27222e-014 1.43125e-014
lhumerus 64.7271 -11.0255 85.8262
lradius 9.68538
lwrist -56.3031
lhand -24.7583 -7.48974
lfingers 7.12502
lthumb 1.74497 22.4829
rfemur 155.082 -172.251 -168.18
rtibia 39.8025
rfoot 2.37606 1.60822
rtoes -34.0925
lfemur -26.6173 3.84477 -21.1678
ltibia 39.2129
lfoot 11.4304 -6.24706
ltoes -17.7719
148
root 0.610866 20.6911 1.51249 -169.946 -7.24479 -184.096
lowerback 3.23885 0.506037 5.685
upperback 7.21201 -0.00427039 1.12726
thorax 5.72508 0.0193656 -2.02863
lowerneck -8.21162 -1.49265 0.628941
upperneck 6.32072 -1.83579 -3.6364
head 3.46861 -1.07288 -1.41475
rclavicle 1.59028e-015 -1.11319e-014
rhumerus 66.3707 0.55048 -75.9531
rradius 9.26648
rwrist 51.5905
rhand -15.4541 9.34761
rfingers 7.12502
rthumb 10.7268 -20.3585
lclavicle 1.59028e-015 -1.11319e-014
lhumerus 64.6381 -11.0747 85.6261
lradius 9.73301
lwrist -56.0637
lhand -24.8431 -7.35174
lfingers 7.12502
lthumb 1.66307 22.6215
rfemur 155.622 -172.16 -168.199
rtibia 38.7679
rfoot 4.13323 1.1641
rtoes -32.7077
lfemur -25.869 4.00326 -21.0496
ltibia 37.8877
lfoot 13.0916 -5.67224
ltoes -18.4695
149
root 0.620914 20.8158 1.45092 -170.049 -7.19151 -184.041
lowerback 2.79655 0.528712 5.5416
upperback 7.01537 0.0496443 1.076
thorax 5.76627 0.055494 -1.99962
lowerneck -7.95908 -1.5582 0.499541
upperneck 6.69761 -1.91514 -3.51648
head 3.55023 -1.11349 -1.35835
rclavicle -6.36111e-015 2.22639e-014
rhumerus 66.4339 0.627871 -76.0168
rradius 9.00328
rwrist 51.3799
rhand -15.7071 9.33449
rfingers 7.12502
rthumb 10.4827 -20.3841
lclavicle -6.36111e-015 2.22639e-014
lhumerus 64.555 -11.1116 85.3807
lradius 9.82364
lwrist -55.7395
lhand -24.8553 -7.30475
lfingers 7.12502
lthumb 1.65132 22.6686
rfemur 156.094 -171.998 -168.16
rtibia 37.7631
rfoot 5.38079 0.686039
rtoes -31.0292
lfemur -25.2244 4.15229 -20.8953
ltibia 36.6478
lfoot 14.5364 -5.10468
ltoes -18.8095
